<?xml version="1.0" encoding="UTF-8"?>
<svg version="1.1" xmlns="http://www.w3.org/2000/svg" width="1080" height="1080">
<path d="M0 0 C356.4 0 712.8 0 1080 0 C1080 356.4 1080 712.8 1080 1080 C723.6 1080 367.2 1080 0 1080 C0 723.6 0 367.2 0 0 Z " fill="#FEFEFE" transform="translate(0,0)"/>
<path d="M0 0 C1.18156174 0.00415421 1.18156174 0.00415421 2.38699341 0.00839233 C57.91433868 0.23727089 105.10880785 23.54655643 143.89599609 62.60131836 C175.15269043 94.79904193 196.8968872 138.78256085 203.77661133 183.10131836 C204.03344188 184.68531677 204.32496429 186.26378357 204.63549805 187.83813477 C206.41844375 197.62805535 206.46297509 207.32257873 206.44067383 217.24829102 C206.43753947 220.15094526 206.46095595 223.05255098 206.48632812 225.95507812 C206.55013416 244.86991282 204.21487798 263.0325603 199.125 281.25 C198.86332031 282.31089844 198.60164062 283.37179687 198.33203125 284.46484375 C190.59072038 314.44879428 175.40639558 343.22766601 155.42602539 366.8371582 C152.79252618 370.0224568 152.125 370.94028579 152.125 375.25 C153.7138856 377.24872899 155.27865175 379.00518006 157.0625 380.8125 C158.0844763 381.88439288 159.10397021 382.95865748 160.12109375 384.03515625 C160.63140137 384.57414551 161.14170898 385.11313477 161.66748047 385.66845703 C163.76342471 387.94274963 165.69386404 390.33520385 167.625 392.75 C170.82431506 396.72629157 174.1508285 400.51670522 177.625 404.25 C181.88797807 408.830935 185.8728635 413.56851114 189.79296875 418.44921875 C193.24636274 422.59676229 196.93757696 426.50486134 200.64453125 430.42578125 C203.10621381 433.22861037 205.08739144 436.13170662 207.125 439.25 C198.54514373 439.50577122 189.96689921 439.70075535 181.38416386 439.81993389 C177.39788007 439.87716011 173.41421796 439.95464977 169.42944336 440.07983398 C165.57773408 440.20006949 161.72853161 440.26526414 157.87508965 440.29364967 C156.41122403 440.313853 154.94748391 440.35331319 153.48469734 440.41303062 C142.04330935 440.86119959 142.04330935 440.86119959 137.28652954 436.86595154 C135.00994891 434.09177505 133.06363976 431.26581049 131.125 428.25 C129.97300914 426.91465426 128.7968229 425.59897623 127.578125 424.32421875 C127.04316406 423.75509766 126.50820313 423.18597656 125.95703125 422.59960938 C125.17392578 421.77686523 125.17392578 421.77686523 124.375 420.9375 C120.47357277 416.81620816 116.71629374 412.64600956 113.125 408.25 C109.6154465 409.50715349 106.5702139 411.13139082 103.42016602 413.11791992 C71.39618315 433.31310672 36.19208342 443.14174846 -1.5625 442.875 C-3.12333313 442.87102707 -3.12333313 442.87102707 -4.71569824 442.86697388 C-21.81416759 442.78566633 -37.46468008 441.34276056 -53.875 436.25 C-54.78975098 435.97736328 -55.70450195 435.70472656 -56.64697266 435.42382812 C-69.92461444 431.39634922 -84.89634781 426.28816518 -96.0390625 417.85546875 C-98.77389085 415.87061855 -98.77389085 415.87061855 -101.69921875 417.00024414 C-104.66474789 418.16726011 -107.6013953 419.36878836 -110.5234375 420.640625 C-189.68170171 454.46899373 -276.75905868 439.25 -361.875 439.25 C-361.875 295.37 -361.875 151.49 -361.875 3.25 C-172.57292125 3.25 -172.57292125 3.25 -154.25 7.25 C-152.81382324 7.55659546 -152.81382324 7.55659546 -151.34863281 7.86938477 C-142.93823751 9.78541402 -134.7763632 12.39418652 -126.625 15.1875 C-125.43567871 15.59419922 -124.24635742 16.00089844 -123.02099609 16.41992188 C-116.15685117 18.85493267 -109.78081981 21.68065726 -103.40722656 25.21313477 C-100.54435521 26.38538839 -99.68097699 26.41109392 -96.875 25.25 C-95.37929778 24.54855657 -93.90378721 23.80323005 -92.4453125 23.02734375 C-62.82959953 7.56549081 -33.42753915 -0.23105271 0 0 Z " fill="#001035" transform="translate(644.875,200.75)"/>
<path d="M0 0 C1.06331039 0.00422974 1.06331039 0.00422974 2.14810181 0.00854492 C36.41085663 0.21344778 64.48492971 13.98186308 89.25 37.3125 C89.91386719 37.91191406 90.57773437 38.51132812 91.26171875 39.12890625 C117.39775334 63.67451278 129.90968332 99.81694092 135.25 134.3125 C135.42200928 135.37637939 135.59401855 136.44025879 135.77124023 137.53637695 C136.27689614 141.52463801 136.44600506 145.45158572 136.48828125 149.46484375 C136.49802979 150.23371918 136.50777832 151.0025946 136.51782227 151.79476929 C136.69403825 169.31350189 136.38012334 186.18114204 132.25 203.3125 C131.97712158 204.46685547 131.97712158 204.46685547 131.69873047 205.64453125 C127.02722372 224.7146321 118.79981836 245.09641986 106.25 260.3125 C102.63654725 257.59452769 99.8508384 254.8021234 97.0625 251.25 C93.11953665 246.32786742 88.98839583 241.64489483 84.70703125 237.015625 C82.25 234.3125 82.25 234.3125 81.21803284 232.54130554 C79.74857221 230.26271473 78.48454079 228.87301201 76.25 227.3125 C71.32938044 226.32005028 66.43946857 226.49655295 61.4453125 226.62890625 C59.99659626 226.64197519 58.54784891 226.65193325 57.09909058 226.65892029 C53.30067315 226.68554592 49.50415355 226.75421414 45.70648193 226.83184814 C41.82541577 226.90368023 37.94404045 226.93547395 34.0625 226.97070312 C26.45747156 227.04559622 18.85400249 227.16493625 11.25 227.3125 C11.87072891 227.99961563 12.49145782 228.68673126 13.1309967 229.39466858 C13.94378586 230.29575851 14.75657501 231.19684845 15.59399414 232.12524414 C16.40034805 233.01860977 17.20670197 233.9119754 18.03749084 234.83241272 C20.33749762 237.41057948 22.53721161 240.045915 24.6875 242.75 C28.54825137 247.523903 32.62437075 252.04638428 36.78125 256.5625 C39.97881296 260.12434229 42.96388343 263.83815833 45.96875 267.5625 C49.10195574 271.33951514 52.43013 274.92228234 55.75390625 278.53125 C59.08741066 282.24557729 62.22062274 286.1052195 65.33984375 290 C67.13708189 292.27998832 67.13708189 292.27998832 69.00390625 293.9375 C70.25 295.3125 70.25 295.3125 70.25 298.3125 C40.63723376 316.32523091 4.69667984 324.1558709 -29.5859375 316.1640625 C-31.15214844 315.74253906 -31.15214844 315.74253906 -32.75 315.3125 C-33.77351562 315.07273437 -34.79703125 314.83296875 -35.8515625 314.5859375 C-42.39211522 312.90934511 -42.39211522 312.90934511 -44.0078125 310.21484375 C-44.25273438 309.58707031 -44.49765625 308.95929688 -44.75 308.3125 C-44.36070312 307.90902344 -43.97140625 307.50554687 -43.5703125 307.08984375 C-2.82575951 262.87167679 6.27415521 198.94354955 4.25 141.3125 C2.18646886 95.0967208 -12.52629089 49.82084129 -41.60083008 13.5 C-44.75 9.52131979 -44.75 9.52131979 -44.75 7.3125 C-42.16928574 6.5113778 -39.58588151 5.72163443 -37 4.9375 C-35.93458984 4.60492188 -35.93458984 4.60492188 -34.84765625 4.265625 C-23.31714787 0.7962685 -11.98634806 -0.06880938 0 0 Z " fill="#FDFDFE" transform="translate(644.75,262.6875)"/>
<path d="M0 0 C116.06382979 0 116.06382979 0 139 8 C138.43424861 12.11632908 136.21046589 14.46861105 133.625 17.625 C127.28560947 25.60289336 122.11113797 34.20135617 117 43 C116.63664551 43.61536621 116.27329102 44.23073242 115.89892578 44.86474609 C106.47093252 60.95416494 99.55247068 78.94709904 95 97 C94.66613281 98.10988281 94.33226562 99.21976562 93.98828125 100.36328125 C88.51109859 118.99384682 87.71790616 137.63780383 87.6875 156.9375 C87.68391479 157.85825317 87.68032959 158.77900635 87.67663574 159.72766113 C87.572447 209.5232309 103.92974595 263.05670172 136.7890625 301.26171875 C139 304 139 304 139 306 C136.7132056 306.7882275 134.421948 307.55481111 132.125 308.3125 C131.51269531 308.52583984 130.90039062 308.73917969 130.26953125 308.95898438 C91.15917875 321.67934174 30.1132701 314 0 314 C0 210.38 0 106.76 0 0 Z " fill="#FEFEFE" transform="translate(352,265)"/>
<path d="M0 0 C23.75021434 21.59110394 33.0325027 60.2442754 35 91 C35.25434674 97.16483805 35.30069657 103.33063601 35.3125 109.5 C35.31787781 110.62746643 35.31787781 110.62746643 35.32336426 111.77770996 C35.39730527 140.55649518 29.63509805 169.06553477 17 195 C16.44441406 196.14082031 15.88882813 197.28164063 15.31640625 198.45703125 C11.35483943 206.16973525 6.75873029 213.49064091 1 220 C0.34 220 -0.32 220 -1 220 C-15.07006774 202.62807704 -24.03142717 181.70555103 -30.3125 160.4375 C-30.65800903 159.29051636 -30.65800903 159.29051636 -31.01049805 158.12036133 C-35.09197961 143.55433995 -36.48957973 128.80274024 -36.33618164 113.72802734 C-36.31236934 111.2363277 -36.31568649 108.745693 -36.32226562 106.25390625 C-36.26155417 70.80649486 -25.93041056 25.93041056 0 0 Z " fill="#FDFDFE" transform="translate(545,312)"/>
<path d="M0 0 C7.31479939 5.00632658 13.05476637 13.01871811 14.8671875 21.78125 C16.05336307 33.04259583 13.71439725 42.7331514 6.8671875 51.78125 C7.3003125 52.26335938 7.7334375 52.74546875 8.1796875 53.2421875 C8.7365625 53.87382813 9.2934375 54.50546875 9.8671875 55.15625 C10.7025 56.09597656 10.7025 56.09597656 11.5546875 57.0546875 C12.8671875 58.78125 12.8671875 58.78125 12.8671875 60.78125 C10.1796875 61.09375 10.1796875 61.09375 6.8671875 60.78125 C3.9921875 58.28125 3.9921875 58.28125 1.8671875 55.78125 C1.32449219 56.05839844 0.78179688 56.33554687 0.22265625 56.62109375 C-0.85048828 57.16443359 -0.85048828 57.16443359 -1.9453125 57.71875 C-3.00685547 58.25822266 -3.00685547 58.25822266 -4.08984375 58.80859375 C-10.47292733 61.84757618 -17.92772651 61.64120154 -24.6953125 59.84375 C-32.68487428 56.75980784 -38.63003761 50.64385185 -42.1953125 42.96875 C-45.67658938 34.3832522 -46.81888424 25.40657094 -43.5078125 16.53125 C-39.0380507 6.81302226 -32.8567722 0.86306486 -23.1328125 -3.59375 C-14.80799355 -5.32808728 -7.40234674 -4.22991242 0 0 Z " fill="#FCFCFC" transform="translate(574.1328125,735.21875)"/>
<path d="M0 0 C1.86443593 1.61310265 3.3347279 3.25430646 4.59375 5.37890625 C4.92375 2.73890625 5.25375 0.09890625 5.59375 -2.62109375 C7.24375 -2.62109375 8.89375 -2.62109375 10.59375 -2.62109375 C10.72091588 4.7802488 10.8082552 12.18130781 10.8684082 19.58349609 C10.89349433 22.09955372 10.92757125 24.61553888 10.97094727 27.13134766 C11.031855 30.75571611 11.0600202 34.37911794 11.08203125 38.00390625 C11.10783768 39.12192627 11.1336441 40.23994629 11.16023254 41.3918457 C11.16272028 48.37766584 10.22381761 53.02095449 5.59375 58.37890625 C1.24236186 62.61314164 -3.4942116 64.01405231 -9.47265625 64.0625 C-10.67728516 64.03349609 -10.67728516 64.03349609 -11.90625 64.00390625 C-12.70933594 64.02324219 -13.51242187 64.04257812 -14.33984375 64.0625 C-21.37296441 64.00550551 -25.94323209 61.44272057 -31.13867188 56.84619141 C-32.40625 55.37890625 -32.40625 55.37890625 -32.28125 53.25390625 C-31.848125 52.32578125 -31.848125 52.32578125 -31.40625 51.37890625 C-29.92125 50.88390625 -29.92125 50.88390625 -28.40625 50.37890625 C-27.890625 51.14203125 -27.375 51.90515625 -26.84375 52.69140625 C-23.35163686 56.54168484 -20.04892985 58.02539932 -15.01171875 58.69921875 C-9.18253449 58.96784475 -4.04723064 58.11955808 0.59375 54.37890625 C3.50530176 50.55001626 3.93805778 47.82290901 3.78125 43.06640625 C3.75417969 41.99777344 3.72710937 40.92914062 3.69921875 39.828125 C3.64701172 38.61576172 3.64701172 38.61576172 3.59375 37.37890625 C2.706875 38.16265625 1.82 38.94640625 0.90625 39.75390625 C-4.13032358 43.87898856 -8.37584831 44.85097806 -14.84765625 44.6875 C-20.6376062 43.98917016 -24.78783412 41.34957023 -28.71875 37.12890625 C-33.47715786 31.00910105 -35.06956072 24.91683705 -34.8125 17.18359375 C-33.65744119 9.20924545 -29.3986548 3.72894989 -23.37109375 -1.34375 C-16.31197627 -5.93287806 -6.55989744 -4.71828689 0 0 Z " fill="#08173B" transform="translate(385.40625,751.62109375)"/>
<path d="M0 0 C5.28910866 1.99367732 8.43483304 5.84640059 10.88623047 10.82104492 C11.9305846 14.06331891 11.9881226 16.74784069 11.95703125 20.15234375 C11.95058594 21.39951172 11.94414062 22.64667969 11.9375 23.93164062 C11.92074219 25.22521484 11.90398437 26.51878906 11.88671875 27.8515625 C11.87769531 29.16447266 11.86867188 30.47738281 11.859375 31.83007812 C11.83583672 35.06659163 11.80295395 38.30273399 11.76171875 41.5390625 C12.42171875 41.5390625 13.08171875 41.5390625 13.76171875 41.5390625 C13.76171875 43.1890625 13.76171875 44.8390625 13.76171875 46.5390625 C11.44921875 47.2265625 11.44921875 47.2265625 8.76171875 47.5390625 C6.22327866 45.72589101 5.7668285 44.55439175 4.76171875 41.5390625 C3.94767578 42.06306641 3.94767578 42.06306641 3.1171875 42.59765625 C2.40175781 43.05269531 1.68632812 43.50773438 0.94921875 43.9765625 C-0.11232422 44.65525391 -0.11232422 44.65525391 -1.1953125 45.34765625 C-6.6970556 48.55612976 -13.08307498 48.44530606 -19.23828125 47.5390625 C-23.60154782 45.09169644 -26.64575863 42.31663036 -28.23828125 37.5390625 C-28.73822235 33.16252891 -28.83756629 29.66272195 -26.73828125 25.7265625 C-20.03352585 19.85990153 -14.43213946 19.01726839 -5.5390625 19.265625 C-1.80115472 19.57527417 1.26889513 20.20846302 4.76171875 21.5390625 C4.52494736 14.68282091 4.52494736 14.68282091 1.88671875 8.4765625 C-2.21877555 4.7333177 -6.85619059 5.21901843 -12.140625 5.23828125 C-16.61244853 5.67249362 -19.43862149 7.20081034 -23.23828125 9.5390625 C-23.89828125 8.2190625 -24.55828125 6.8990625 -25.23828125 5.5390625 C-23.94731344 4.72545255 -22.6554825 3.91321204 -21.36328125 3.1015625 C-20.64398438 2.64910156 -19.9246875 2.19664062 -19.18359375 1.73046875 C-13.5658622 -1.71010981 -6.3585439 -1.30943836 0 0 Z " fill="#112043" transform="translate(483.23828125,748.4609375)"/>
<path d="M0 0 C5.09167506 3.18229691 8.14159547 7.10544683 10 12.875 C10.22705078 16.01293945 10.22705078 16.01293945 10.1953125 19.48828125 C10.18886719 20.73544922 10.18242188 21.98261719 10.17578125 23.26757812 C10.15902344 24.56115234 10.14226563 25.85472656 10.125 27.1875 C10.11597656 28.50041016 10.10695313 29.81332031 10.09765625 31.16601562 C10.07411797 34.40252913 10.0412352 37.63867149 10 40.875 C10.66 40.875 11.32 40.875 12 40.875 C12 42.855 12 44.835 12 46.875 C7.48780488 47.24085366 7.48780488 47.24085366 5.25 45.5625 C4 43.875 4 43.875 3 40.875 C2.29875 41.49375 1.5975 42.1125 0.875 42.75 C-5.60700074 47.54104402 -13.19502991 47.99138254 -21 46.875 C-24.97152847 44.88257212 -27.20838563 42.21730263 -29.4375 38.4375 C-30.40575849 34.02654464 -30.6396496 30.40305182 -28.875 26.1875 C-25.89018644 22.50622994 -22.47268501 20.365895 -18 18.875 C-10.76661621 18.48425188 -3.82963816 18.27323308 3 20.875 C2.76322861 14.01875841 2.76322861 14.01875841 0.125 7.8125 C-3.9804943 4.0692552 -8.61790934 4.55495593 -13.90234375 4.57421875 C-18.37416728 5.00843112 -21.20034024 6.53674784 -25 8.875 C-25.66 7.555 -26.32 6.235 -27 4.875 C-18.77083632 -1.36653272 -10.02821826 -3.60491506 0 0 Z " fill="#101F41" transform="translate(626,749.125)"/>
<path d="M0 0 C4.21882231 2.71751343 6.65331523 5.82514528 8.5 10.5 C9.20791166 15.4807678 9.24506138 20.41245155 9.25 25.4375 C9.2784241 28.0717824 9.31924068 30.7056948 9.359375 33.33984375 C9.36420898 34.49863037 9.36904297 35.65741699 9.37402344 36.85131836 C9.19869482 39.42293313 9.19869482 39.42293313 10.5 40.5 C10.54080783 42.49958364 10.54254356 44.50045254 10.5 46.5 C7.53 46.005 7.53 46.005 4.5 45.5 C3.84 43.52 3.18 41.54 2.5 39.5 C1.613125 40.28375 0.72625 41.0675 -0.1875 41.875 C-5.64841197 46.70092221 -11.2722368 46.99054181 -18.32421875 46.88671875 C-23.09959753 46.30521506 -25.08111017 44.8429145 -28.5 41.5 C-31.23318057 37.05625744 -31.26070173 32.56867571 -30.5 27.5 C-27.87743284 22.9924627 -24.95455765 20.57247674 -19.94140625 18.96484375 C-12.41224208 17.53129089 -4.68657254 17.8259265 2.5 20.5 C2.06903235 12.9840932 2.06903235 12.9840932 -1.5 6.5 C-6.36291144 3.41434095 -11.95517831 3.87666057 -17.5 4.5 C-20.18600125 5.56330514 -22.10651302 6.83496558 -24.5 8.5 C-25.16 8.5 -25.82 8.5 -26.5 8.5 C-26.83 6.85 -27.16 5.2 -27.5 3.5 C-18.99656087 -1.87463421 -9.62293578 -4.04889562 0 0 Z " fill="#0A193D" transform="translate(705.5,749.5)"/>
<path d="M0 0 C7.31479939 5.00632658 13.05476637 13.01871811 14.8671875 21.78125 C16.05336307 33.04259583 13.71439725 42.7331514 6.8671875 51.78125 C7.3003125 52.26335938 7.7334375 52.74546875 8.1796875 53.2421875 C8.7365625 53.87382813 9.2934375 54.50546875 9.8671875 55.15625 C10.7025 56.09597656 10.7025 56.09597656 11.5546875 57.0546875 C12.8671875 58.78125 12.8671875 58.78125 12.8671875 60.78125 C10.1796875 61.09375 10.1796875 61.09375 6.8671875 60.78125 C3.9921875 58.28125 3.9921875 58.28125 1.8671875 55.78125 C1.32449219 56.05839844 0.78179688 56.33554687 0.22265625 56.62109375 C-0.85048828 57.16443359 -0.85048828 57.16443359 -1.9453125 57.71875 C-3.00685547 58.25822266 -3.00685547 58.25822266 -4.08984375 58.80859375 C-10.47292733 61.84757618 -17.92772651 61.64120154 -24.6953125 59.84375 C-32.68487428 56.75980784 -38.63003761 50.64385185 -42.1953125 42.96875 C-45.67658938 34.3832522 -46.81888424 25.40657094 -43.5078125 16.53125 C-39.0380507 6.81302226 -32.8567722 0.86306486 -23.1328125 -3.59375 C-14.80799355 -5.32808728 -7.40234674 -4.22991242 0 0 Z M-33.0546875 10.078125 C-38.65675826 18.2411424 -38.9680162 26.15127958 -38.1328125 35.78125 C-36.56189604 43.54577976 -32.58947238 48.34229633 -26.1328125 52.78125 C-21.2014535 55.83399605 -15.74007984 55.272344 -10.1328125 54.78125 C-6.51204971 53.81529779 -3.81534911 52.46378661 -1.1328125 49.78125 C-3.4428125 47.14125 -5.7528125 44.50125 -8.1328125 41.78125 C-3.1328125 41.78125 -3.1328125 41.78125 -0.8203125 43.78125 C0.015 44.77125 0.015 44.77125 0.8671875 45.78125 C2.84739171 45.34091008 2.84739171 45.34091008 4.8671875 43.78125 C8.55897358 36.4939853 10.31417827 28.20539827 8.18359375 20.21875 C5.45715479 12.79740578 1.84987641 7.01847182 -5.3203125 3.34375 C-15.78293519 -0.67628456 -25.74928771 1.34728135 -33.0546875 10.078125 Z " fill="#0C1B3F" transform="translate(574.1328125,735.21875)"/>
<path d="M0 0 C33.04517454 0 33.04517454 0 43 8 C50.60906888 16.52159559 52.54615956 24.86384543 52.37890625 36.13671875 C51.59795534 44.09919761 48.33210096 51.67838913 42.8046875 57.53515625 C30.13854266 67.81611797 16.22999693 65 0 65 C0 43.55 0 22.1 0 0 Z M6 6 C6 23.49 6 40.98 6 59 C25.44313588 60.42148463 25.44313588 60.42148463 36 55 C41.93848034 49.06151966 45.36964275 43.65868122 45.45898438 35.109375 C45.45189453 34.28953125 45.44480469 33.4696875 45.4375 32.625 C45.45748047 31.81289063 45.47746094 31.00078125 45.49804688 30.1640625 C45.49260037 23.36682033 43.72494959 18.2330987 39.32421875 13.01171875 C38.78410156 12.57472656 38.24398437 12.13773438 37.6875 11.6875 C37.15511719 11.23761719 36.62273437 10.78773438 36.07421875 10.32421875 C25.48470825 3.5636838 20.5107757 6 6 6 Z " fill="#0C1C3F" transform="translate(272,731)"/>
<path d="M0 0 C5.12663014 2.31219548 8.36990743 5.15387737 10.92578125 10.265625 C11.10372761 13.03108642 11.20339847 15.74825775 11.23828125 18.515625 C11.26728516 19.26714844 11.29628906 20.01867187 11.32617188 20.79296875 C11.38627256 26.09107531 10.48042428 29.09768089 6.92578125 33.265625 C3.41837921 35.97030204 -0.21918261 37.14347698 -4.57421875 37.765625 C-9.88037577 37.00760257 -14.21975656 35.582558 -17.65625 31.2890625 C-21.33549238 25.45741031 -22.98083424 21.2233718 -22.07421875 14.265625 C-20.04599738 7.85872011 -17.13714171 3.21282791 -11.11328125 0.04296875 C-7.12886842 -1.47599323 -4.00493161 -1.41794189 0 0 Z " fill="#FAFBFB" transform="translate(379.07421875,753.734375)"/>
<path d="M0 0 C1.98 0 3.96 0 6 0 C10.06035618 8.45082262 13.75432127 17.04102636 17.375 25.6875 C17.82794434 26.76322266 18.28088867 27.83894531 18.74755859 28.94726562 C19.16859863 29.95853516 19.58963867 30.96980469 20.0234375 32.01171875 C20.40419434 32.92397217 20.78495117 33.83622559 21.17724609 34.77612305 C22 37 22 37 22 39 C22.66 39 23.32 39 24 39 C24.37898437 37.824375 24.75796875 36.64875 25.1484375 35.4375 C27.22022914 29.22455963 29.54505543 23.1069132 31.87109375 16.98583984 C32.633548 14.97748399 33.39110559 12.96732347 34.1484375 10.95703125 C34.6325199 9.67957658 35.11688428 8.40222873 35.6015625 7.125 C36.03807129 5.97257813 36.47458008 4.82015625 36.92431641 3.6328125 C38 1 38 1 39 0 C40.99958364 -0.04080783 43.00045254 -0.04254356 45 0 C39.70054819 14.06864996 34.23653462 28.0662939 28.550354 41.98297119 C27.93655256 43.48672604 27.32499652 44.99139949 26.71575928 46.49700928 C25.85114642 48.63106193 24.97762678 50.76125192 24.1015625 52.890625 C23.84767761 53.52092621 23.59379272 54.15122742 23.33221436 54.80062866 C19.12118775 64.93940613 19.12118775 64.93940613 15 67 C11.4375 67.125 11.4375 67.125 8 67 C7 66 7 66 6.9375 63.4375 C6.958125 62.633125 6.97875 61.82875 7 61 C8.0725 60.855625 9.145 60.71125 10.25 60.5625 C12.81396605 59.83439605 13.78478102 59.30019016 15.35546875 57.109375 C17.8357816 51.84430657 19.18605722 46.82182565 17.3901825 41.0349884 C16.51154789 38.88589851 15.56002682 36.78773938 14.5703125 34.6875 C14.21991913 33.91494873 13.86952576 33.14239746 13.5085144 32.34643555 C12.39293638 29.89179813 11.26004938 27.44568652 10.125 25 C9.00001172 22.55311429 7.8788815 20.10457533 6.76290894 17.65356445 C6.06983976 16.13377704 5.3711997 14.61651324 4.66604614 13.10229492 C2.68758703 8.79154037 1.18553899 4.59462224 0 0 Z " fill="#0D1C3F" transform="translate(745,749)"/>
<path d="M0 0 C1.5234375 1.16796875 1.5234375 1.16796875 3.5234375 4.16796875 C1.9609375 5.35546875 1.9609375 5.35546875 -0.4765625 6.16796875 C-2.08314868 5.43161675 -3.68776319 4.69034629 -5.27734375 3.91796875 C-9.78299413 2.38140592 -14.80171889 2.49542425 -19.4765625 3.16796875 C-21.87026824 4.29695643 -21.87026824 4.29695643 -23.4765625 6.16796875 C-23.95713965 8.21683355 -23.95713965 8.21683355 -23.7265625 10.35546875 C-23.6028125 12.24265625 -23.6028125 12.24265625 -23.4765625 14.16796875 C-18.01234498 16.70946527 -12.44876674 18.43768182 -6.66015625 20.10546875 C1.6680982 22.88495981 1.6680982 22.88495981 4.5234375 27.16796875 C5.27726217 31.76980542 4.92313594 35.33782585 2.8984375 39.54296875 C-0.6373593 43.45095468 -4.24982848 45.26762933 -9.5 45.6015625 C-10.95033718 45.62468071 -12.40117749 45.62536121 -13.8515625 45.60546875 C-14.60381104 45.5993457 -15.35605957 45.59322266 -16.13110352 45.58691406 C-21.85105493 45.42538616 -25.77306704 44.62359807 -30.4765625 41.16796875 C-31.73046875 39.15234375 -31.73046875 39.15234375 -32.4765625 37.16796875 C-32.1465625 36.50796875 -31.8165625 35.84796875 -31.4765625 35.16796875 C-28.56333942 35.77756389 -26.40065038 36.71728679 -23.8515625 38.23046875 C-19.09230516 40.66337269 -14.73106067 40.92237082 -9.4765625 40.16796875 C-5.65619048 38.65797709 -5.65619048 38.65797709 -2.4765625 36.16796875 C-2.05963397 32.75196282 -2.05963397 32.75196282 -2.4765625 29.16796875 C-6.30884062 25.03932779 -12.47801096 24.45862017 -17.74609375 23.23828125 C-23.17388007 21.86552997 -26.62413095 20.31114985 -30.4765625 16.16796875 C-31.72287131 12.36167429 -31.50109027 9.02371841 -30.4765625 5.16796875 C-23.2875805 -4.48484276 -10.22461339 -5.63000864 0 0 Z " fill="#0D1C3F" transform="translate(826.4765625,750.83203125)"/>
<path d="M0 0 C2.31 0 4.62 0 7 0 C7 5.28 7 10.56 7 16 C10.3 16 13.6 16 17 16 C17 17.65 17 19.3 17 21 C13.7 21 10.4 21 7 21 C7.11795429 25.82398914 7.24218018 30.64775958 7.37231445 35.47143555 C7.41572297 37.11364303 7.45739358 38.75589739 7.49731445 40.39819336 C7.5548744 42.75388745 7.61860892 45.10934428 7.68359375 47.46484375 C7.70030624 48.20339096 7.71701874 48.94193817 7.73423767 49.7028656 C7.53548013 53.14300627 7.53548013 53.14300627 9 56 C10.85287502 56.07226502 12.70833878 56.0838122 14.5625 56.0625 C15.57441406 56.05347656 16.58632813 56.04445313 17.62890625 56.03515625 C18.41136719 56.02355469 19.19382812 56.01195312 20 56 C20 57.65 20 59.3 20 61 C15.46883786 63.60567985 11.11582612 63.83608162 6 63 C3.17575712 60.80977082 1.58491397 59.16982793 0 56 C-0.08667255 53.37372867 -0.11560135 50.77437517 -0.09765625 48.1484375 C-0.0962413 47.37440582 -0.09482635 46.60037415 -0.09336853 45.80288696 C-0.08776403 43.32688558 -0.07521083 40.85097412 -0.0625 38.375 C-0.05748558 36.69791797 -0.05292257 35.02083453 -0.04882812 33.34375 C-0.03779315 29.22913194 -0.02052554 25.11458122 0 21 C-1.98 21 -3.96 21 -6 21 C-6 19.35 -6 17.7 -6 16 C-4.02 16 -2.04 16 0 16 C0 10.72 0 5.44 0 0 Z " fill="#192849" transform="translate(650,733)"/>
<path d="M0 0 C1.98 0 3.96 0 6 0 C6 5.28 6 10.56 6 16 C9.63 16 13.26 16 17 16 C17 17.65 17 19.3 17 21 C13.37 21 9.74 21 6 21 C6.11795429 25.82398914 6.24218018 30.64775958 6.37231445 35.47143555 C6.41572297 37.11364303 6.45739358 38.75589739 6.49731445 40.39819336 C6.5548744 42.75388745 6.61860892 45.10934428 6.68359375 47.46484375 C6.70030624 48.20339096 6.71701874 48.94193817 6.73423767 49.7028656 C6.53548013 53.14300627 6.53548013 53.14300627 8 56 C9.85287502 56.07226502 11.70833878 56.0838122 13.5625 56.0625 C14.57441406 56.05347656 15.58632813 56.04445313 16.62890625 56.03515625 C17.41136719 56.02355469 18.19382812 56.01195312 19 56 C19.33 57.65 19.66 59.3 20 61 C15.25738006 63.5293973 10.24469138 63.74417918 5 63 C2.42362529 61.11484777 1.40332572 59.80665143 0 57 C-0.08683445 54.22839374 -0.1155579 51.48225235 -0.09765625 48.7109375 C-0.0962413 47.89251373 -0.09482635 47.07408997 -0.09336853 46.23086548 C-0.0877629 43.61220675 -0.07520948 40.99363296 -0.0625 38.375 C-0.05748572 36.60156373 -0.05292269 34.82812613 -0.04882812 33.0546875 C-0.03779164 28.70309218 -0.02052325 24.3515605 0 20 C-1.98 20 -3.96 20 -6 20 C-6 18.68 -6 17.36 -6 16 C-4.02 16 -2.04 16 0 16 C0 10.72 0 5.44 0 0 Z " fill="#07173B" transform="translate(431,733)"/>
<path d="M0 0 C1.98 0 3.96 0 6 0 C6 5.28 6 10.56 6 16 C9.63 16 13.26 16 17 16 C17 17.32 17 18.64 17 20 C13.37 20 9.74 20 6 20 C6.11811006 24.80567423 6.24234823 29.61113568 6.37231445 34.41650391 C6.41567538 36.05187653 6.45734961 37.68729477 6.49731445 39.32275391 C6.55498912 41.67103841 6.61869129 44.01909304 6.68359375 46.3671875 C6.70030624 47.10057343 6.71701874 47.83395935 6.73423767 48.58956909 C6.78637962 52.42202308 6.78637962 52.42202308 8 56 C11.63 56 15.26 56 19 56 C19.33 57.65 19.66 59.3 20 61 C15.45763142 63.62261465 11.1304542 63.69734329 6 63 C3.06576805 61.20353146 1.52794645 60.0558929 0 57 C-0.08675538 54.30106819 -0.11557897 51.62830769 -0.09765625 48.9296875 C-0.0962413 48.13345978 -0.09482635 47.33723206 -0.09336853 46.51687622 C-0.08776345 43.9695462 -0.07521014 41.42230353 -0.0625 38.875 C-0.05748565 37.14974085 -0.05292263 35.42448033 -0.04882812 33.69921875 C-0.03779237 29.46611209 -0.02052436 25.23307086 0 21 C-1.98 21 -3.96 21 -6 21 C-6 19.35 -6 17.7 -6 16 C-4.02 16 -2.04 16 0 16 C0 10.72 0 5.44 0 0 Z " fill="#09183C" transform="translate(843,733)"/>
<path d="M0 0 C1.216875 -0.01417969 2.43375 -0.02835938 3.6875 -0.04296875 C6.7719563 0.17163375 8.42673876 0.55991226 11 2.1875 C12.05667697 10.67446109 12.05667697 10.67446109 9.65234375 14.1171875 C5.05318655 18.1806187 0.59842283 19.90909755 -5.5 20.5625 C-9.68805909 20.11377938 -11.7542342 18.8150247 -15 16.1875 C-16.73297665 12.7215467 -16.60552145 8.96864508 -16 5.1875 C-11.3815322 0.05586911 -6.59334451 0.03492238 0 0 Z " fill="#F9FAFB" transform="translate(697,771.8125)"/>
<path d="M0 0 C1.31613281 -0.01417969 2.63226563 -0.02835938 3.98828125 -0.04296875 C7.40875367 0.17013354 9.64016341 0.69625018 12.6875 2.1875 C13.46711783 11.10979299 13.46711783 11.10979299 10.5625 15.125 C5.34474825 18.86816973 1.33399418 20.81357584 -5.125 20.6171875 C-8.90393149 19.87489739 -10.68703992 17.94423308 -13.3125 15.1875 C-14.88185594 12.04878812 -14.66451103 9.64894178 -14.3125 6.1875 C-9.79181854 0.71509613 -6.79951885 0.00648191 0 0 Z " fill="#FAFAFB" transform="translate(475.3125,771.8125)"/>
<path d="M0 0 C1.98 0 3.96 0 6 0 C6.01030746 0.72440781 6.02061493 1.44881561 6.03123474 2.19517517 C6.12904768 9.00851902 6.23153859 15.821778 6.33933926 22.63497066 C6.39459955 26.13804355 6.44802434 29.64112473 6.49731445 33.14428711 C6.55400668 37.16790144 6.61857401 41.19135531 6.68359375 45.21484375 C6.70030624 46.47836166 6.71701874 47.74187958 6.73423767 49.04368591 C6.75418289 50.204814 6.77412811 51.36594208 6.79467773 52.56225586 C6.81022202 53.59039902 6.8257663 54.61854218 6.84178162 55.67784119 C6.74171871 57.96085353 6.74171871 57.96085353 8 59 C9.51469448 59.23192865 11.03754562 59.41215238 12.5625 59.5625 C13.38878906 59.64628906 14.21507812 59.73007812 15.06640625 59.81640625 C16.02353516 59.90728516 16.02353516 59.90728516 17 60 C17 61.65 17 63.3 17 65 C14.32296769 65.8923441 12.40616916 66.25160342 9.625 66.375 C8.87476563 66.42398438 8.12453125 66.47296875 7.3515625 66.5234375 C4.64626394 65.92126141 2.97946091 64.95699734 1.0637207 62.94708252 C-1.48090334 58.2892875 -0.58983764 52.31730392 -0.48828125 47.16796875 C-0.47894812 45.8074931 -0.47183436 44.44700058 -0.46684265 43.08650208 C-0.44781131 39.51698883 -0.3987468 35.94850347 -0.34332275 32.37939453 C-0.29204504 28.73288883 -0.26931062 25.08621595 -0.24414062 21.43945312 C-0.19062213 14.2925499 -0.10535818 7.14634229 0 0 Z " fill="#06163A" transform="translate(728,730)"/>
<path d="M0 0 C1.21429687 -0.01417969 2.42859375 -0.02835938 3.6796875 -0.04296875 C6.96844421 0.17702745 9.17865948 0.77034382 12.125 2.1875 C13.0303153 11.76037102 13.0303153 11.76037102 11 14.9609375 C6.14266728 19.13520781 0.37316581 20.71469256 -5.91015625 20.58203125 C-9.50784619 19.85963228 -11.34962626 17.77446823 -13.875 15.1875 C-15.44435594 12.04878812 -15.22701103 9.64894178 -14.875 6.1875 C-10.38790898 0.60895441 -6.91599729 0.0365539 0 0 Z " fill="#F9F9FA" transform="translate(616.875,771.8125)"/>
<path d="M0 0 C1.98 0 3.96 0 6 0 C6.01030746 0.70965912 6.02061493 1.41931824 6.03123474 2.15048218 C6.12912188 8.83107033 6.23162371 15.51156975 6.33933926 22.19200706 C6.39455623 25.62666983 6.44797423 29.06134113 6.49731445 32.49609375 C6.55408707 36.44279889 6.61862398 40.38935842 6.68359375 44.3359375 C6.70030624 45.57242035 6.71701874 46.8089032 6.73423767 48.08285522 C6.75418289 49.22388702 6.77412811 50.36491882 6.79467773 51.54052734 C6.81022202 52.548685 6.8257663 53.55684265 6.84178162 54.59555054 C6.8448655 57.01266444 6.8448655 57.01266444 8 59 C10.12576782 59.46651207 10.12576782 59.46651207 12.5625 59.625 C13.38878906 59.69976563 14.21507812 59.77453125 15.06640625 59.8515625 C15.70449219 59.90054688 16.34257813 59.94953125 17 60 C17 61.65 17 63.3 17 65 C12.95743997 66.34752001 9.22947847 66.43594986 5 66 C1.71068486 64.27310955 1.1859733 63.5579199 0 60 C-0.08877175 58.05219171 -0.11761308 56.10143718 -0.11352539 54.15161133 C-0.11344986 52.9505928 -0.11337433 51.74957428 -0.11329651 50.51216125 C-0.10813522 49.21521835 -0.10297394 47.91827545 -0.09765625 46.58203125 C-0.09579077 45.24110466 -0.09436748 43.90017739 -0.09336853 42.55924988 C-0.08955356 39.03290927 -0.07973199 35.50660996 -0.06866455 31.98028564 C-0.0584285 28.38074299 -0.05386621 24.78119365 -0.04882812 21.18164062 C-0.0381088 14.12107687 -0.02104462 7.06054113 0 0 Z " fill="#051539" transform="translate(508,730)"/>
<path d="M0 0 C2.31 0 4.62 0 7 0 C7 15.51 7 31.02 7 47 C4.69 47 2.38 47 0 47 C0 31.49 0 15.98 0 0 Z " fill="#223050" transform="translate(409,749)"/>
<path d="M0 0 C1.98 0 3.96 0 6 0 C6 15.51 6 31.02 6 47 C4.02 47 2.04 47 0 47 C0 31.49 0 15.98 0 0 Z " fill="#0A193D" transform="translate(335,749)"/>
<path d="M0 0 C2.31 0 4.62 0 7 0 C7 2.97 7 5.94 7 9 C4.69 9 2.38 9 0 9 C0 6.03 0 3.06 0 0 Z " fill="#263453" transform="translate(409,730)"/>
<path d="M0 0 C1.98 0 3.96 0 6 0 C6 2.97 6 5.94 6 9 C4.02 9 2.04 9 0 9 C0 6.03 0 3.06 0 0 Z " fill="#0E1D40" transform="translate(335,730)"/>
</svg>
